# xmcd
#
# Track frame offsets:
#	150
#	13055
#	30822
#	47077
#	62062
#	80497
#	96917
#	118460
#	134695
#
# Disc length: 2067 seconds
#
# Revision: 0
# Processed by: cddbd v1.4PL0 Copyright (c) Steve Scherf et al.
# Submitted via: EasyCDDAExtractor 5.0.5.1
#
DISCID=78081109
DTITLE=Vince Gill - The way back home
DYEAR=1987
DGENRE=country
TTITLE0=Everybody압 sweetheart
TTITLE1=The way back home
TTITLE2=Cinderella
TTITLE3=Let압 do something
TTITLE4=The radio
TTITLE5=Baby that압 tough
TTITLE6=Losing your love
TTITLE7=It doesn앖 matter any more
TTITLE8=Something압 missing
EXTD=
EXTT0=
EXTT1=
EXTT2=
EXTT3=
EXTT4=
EXTT5=
EXTT6=
EXTT7=
EXTT8=
PLAYORDER=
